<svg width="22" height="21" viewBox="0 0 22 21" fill="none" xmlns="http://www.w3.org/2000/svg">
<path d="M15.6903 3.77002L15.3802 2.52002C15.2731 2.08641 15.0238 1.7012 14.6722 1.42572C14.3206 1.15024 13.887 1.00035 13.4403 1H8.56018C8.11352 1.00035 7.67984 1.15024 7.32825 1.42572C6.97665 1.7012 6.72744 2.08641 6.62024 2.52002L6.31018 3.77002C6.21885 4.13835 6.02458 4.4731 5.75012 4.73517C5.47566 4.99723 5.13228 5.17577 4.76013 5.25L2.61023 5.67999C2.14984 5.77144 1.73636 6.02194 1.44202 6.38757C1.14768 6.75321 0.991374 7.21069 1.00037 7.67999V17.04C1.00037 17.5705 1.21099 18.0792 1.58606 18.4542C1.96113 18.8293 2.46993 19.04 3.00037 19.04H19.0004C19.5308 19.04 20.0394 18.8293 20.4144 18.4542C20.7895 18.0792 21.0004 17.5705 21.0004 17.04V7.67999C21.0094 7.21069 20.8528 6.75321 20.5585 6.38757C20.2641 6.02194 19.8507 5.77144 19.3903 5.67999L17.2404 5.25C16.8682 5.17577 16.5248 4.99723 16.2504 4.73517C15.9759 4.4731 15.7816 4.13835 15.6903 3.77002Z" stroke="#44475C" stroke-width="2" stroke-miterlimit="10"/>
<path d="M11.0004 15C13.2095 15 15.0004 13.2092 15.0004 11C15.0004 8.79089 13.2095 7.00003 11.0004 7.00003C8.79123 7.00003 7.00037 8.79089 7.00037 11C7.00037 13.2092 8.79123 15 11.0004 15Z" stroke="#44475C" stroke-width="2" stroke-miterlimit="10"/>
</svg>
